<?xml version="1.0" standalone="no"?>
<!DOCTYPE svg PUBLIC "-//W3C//DTD SVG 20010904//EN"
 "http://www.w3.org/TR/2001/REC-SVG-20010904/DTD/svg10.dtd">
<svg version="1.0" xmlns="http://www.w3.org/2000/svg"
 width="1025.000000pt" height="1025.000000pt" viewBox="0 0 1025.000000 1025.000000"
 preserveAspectRatio="xMidYMid meet">
<metadata>
Created by potrace 1.11, written by Peter Selinger 2001-2013
</metadata>
<g transform="translate(0.000000,1025.000000) scale(0.100000,-0.100000)"
fill="#000000" stroke="none">
<path d="M4810 9729 c-359 -24 -747 -99 -1095 -210 -1064 -339 -1970 -1058
-2551 -2025 -589 -982 -789 -2158 -559 -3290 257 -1261 1037 -2360 2151 -3030
982 -589 2158 -789 3290 -559 1261 257 2360 1037 3030 2151 589 982 789 2158
559 3290 -257 1261 -1037 2360 -2151 3030 -797 478 -1741 705 -2674 643z
m2078 -1912 c37 -30 191 -402 292 -706 138 -414 225 -794 277 -1215 14 -111
18 -214 18 -481 -1 -366 -12 -479 -70 -735 -266 -1170 -1199 -1906 -2742
-2165 -149 -25 -628 -85 -678 -85 -15 0 -25 6 -25 14 0 7 75 178 166 379 111
246 174 371 188 381 13 8 257 92 544 186 508 167 604 204 517 194 -90 -9 -865
-55 -889 -52 -24 3 -21 10 130 303 323 622 662 1241 1042 1905 119 206 225
392 236 412 116 207 -405 -360 -754 -819 -46 -62 -88 -109 -91 -105 -4 4 -68
138 -144 297 -141 299 -142 301 -149 294 -6 -5 75 -447 103 -562 28 -116 28
-219 0 -294 -12 -31 -62 -116 -111 -187 -393 -572 -761 -1159 -1222 -1948 -54
-93 -102 -168 -106 -168 -4 0 -39 60 -78 132 -332 621 -515 1185 -573 1761
-15 156 -7 549 15 677 61 361 175 656 361 940 255 388 674 739 1194 999 581
292 1294 493 2251 636 225 34 270 36 298 12z"/>
</g>
</svg>
